<svg width="59" height="22" viewBox="0 0 59 22" fill="none" xmlns="http://www.w3.org/2000/svg">
<g filter="url(#filter0_d_326_22892)">
<path d="M56.7055 0.828125H2.29443C1.20827 0.828125 0.327759 1.70956 0.327759 2.79688V19.2031C0.327759 20.2904 1.20827 21.1719 2.29443 21.1719H56.7055C57.7917 21.1719 58.6722 20.2904 58.6722 19.2031V2.79688C58.6722 1.70956 57.7917 0.828125 56.7055 0.828125Z" fill="#E4CF00" stroke="black"/>
<path fill-rule="evenodd" clip-rule="evenodd" d="M6.89643 3.04756L9.7776 15.4048C9.7776 15.5104 9.72974 15.5741 9.63469 15.5951H8.05218C7.96826 15.5951 7.90992 15.5636 7.87845 15.4999L7.46676 13.6303C7.46676 13.5351 7.40908 13.4878 7.29239 13.4878H4.39614C4.31223 13.4458 4.24864 13.4826 4.20603 13.5988L3.77926 15.4527C3.7478 15.5472 3.68421 15.5951 3.58915 15.5951H2.1489C2.0014 15.5951 1.94305 15.5314 1.97518 15.4048C3.24105 9.97625 4.18571 5.86222 4.80783 3.06331C4.82881 2.978 4.88191 2.93075 4.96648 2.92025H6.7391C6.81252 2.92025 6.86562 2.96291 6.89643 3.04756ZM6.96002 11.523C6.70368 10.2782 6.42941 9.03707 6.1373 7.80013C6.12681 7.74763 6.04224 7.43591 5.88425 6.86563C5.71512 7.43591 5.62596 7.74763 5.61548 7.80013C5.30376 9.03844 5.00284 10.2795 4.71278 11.523H6.96002ZM16.952 8.32316L16.8727 8.43406L16.8091 8.49706L16.8727 8.57647L16.9513 8.67163L17.0149 8.76678L17.0628 8.84553L17.1257 8.94069L17.2208 9.131L17.2522 9.22616L17.3001 9.32131L17.4424 13.1551L17.4266 13.2818V13.3933L17.3952 13.5036L17.363 13.7254L17.268 14.0581L17.2208 14.1533L17.1257 14.3751L17.0628 14.4703L17.0149 14.5654L16.952 14.6606L16.8727 14.7551L16.8091 14.8502L16.6511 15.009L16.556 15.0878L16.4774 15.1672L16.3823 15.2459L16.0972 15.4363L16.0185 15.4842L15.907 15.5314L15.7963 15.5951H10.8271C10.7419 15.5741 10.7006 15.5163 10.7006 15.4205V3.17422C10.7006 3.00491 10.7793 2.92025 10.9379 2.92025H14.7834C15.5327 2.92025 16.1575 3.17947 16.659 3.69659C17.1598 4.21438 17.4161 4.84306 17.426 5.582L17.4424 7.15044L17.4266 7.18259L17.4109 7.2935L17.3788 7.388L17.363 7.49956L17.3001 7.68988L17.2522 7.78438L17.2208 7.87953L17.1736 7.97469L17.1257 8.05344L17.0628 8.14859L17.0149 8.24375L16.952 8.32316ZM12.6037 9.73278C12.6011 9.7433 12.5997 9.7541 12.5998 9.76494V13.5673C12.5998 13.6624 12.6207 13.728 12.6627 13.7654C12.7053 13.8022 12.7682 13.8153 12.8528 13.8048H14.8627C15.2954 13.7202 15.5117 13.4616 15.5117 13.0285V10.3037C15.5117 10.2506 15.5091 10.2033 15.5039 10.1607C15.4987 10.12 15.4879 10.0802 15.4718 10.0425C15.4591 10.0141 15.4486 9.98466 15.4403 9.95459C15.4341 9.93171 15.4234 9.91029 15.4088 9.89159C15.3968 9.87476 15.3837 9.85876 15.3695 9.84369C15.3553 9.82883 15.3422 9.81304 15.3302 9.79644C15.2757 9.72336 15.2053 9.66366 15.1243 9.62188C15.0744 9.59993 15.0242 9.57892 14.9735 9.55888C14.9383 9.54248 14.9007 9.53184 14.8621 9.52738H12.8528C12.7027 9.52738 12.6188 9.59825 12.6017 9.74066C12.6017 9.73409 12.6024 9.7295 12.6037 9.72491V9.73278ZM15.5117 6.97653V5.48684C15.5117 4.98022 15.258 4.72691 14.7513 4.72691H12.8528C12.6942 4.69475 12.6155 4.77941 12.6155 4.98022V6.21594C12.605 6.80722 12.5998 7.22459 12.5998 7.46741C12.5998 7.61506 12.6837 7.69972 12.8528 7.72072L14.752 7.73713C14.984 7.73713 15.1689 7.66297 15.3059 7.51531C15.4436 7.367 15.5117 7.18719 15.5117 6.97653ZM20.4304 9.18613C20.4795 9.26619 20.4795 9.34363 20.4304 9.41778L19.8089 10.3838C19.7906 10.4146 19.7656 10.4297 19.7348 10.4297C19.7099 10.4297 19.6883 10.4146 19.6693 10.3838L19.0485 9.41778C18.9986 9.34363 18.9986 9.26685 19.0485 9.18613L19.6699 8.21094C19.6883 8.1801 19.7099 8.165 19.7348 8.165C19.7656 8.165 19.7906 8.1801 19.8089 8.21094L20.4304 9.18613ZM40.097 9.18613C40.1462 9.26619 40.1462 9.34363 40.097 9.41778L39.4756 10.3838C39.4572 10.4146 39.4323 10.4297 39.4015 10.4297C39.3766 10.4297 39.355 10.4146 39.3359 10.3838L38.7151 9.41778C38.6653 9.34363 38.6653 9.26685 38.7151 9.18613L39.3366 8.21094C39.355 8.1801 39.3766 8.165 39.4015 8.165C39.4323 8.165 39.4572 8.1801 39.4756 8.21094L40.097 9.18613ZM24.2555 15.3673V3.18341C24.2555 3.01475 24.3191 2.92484 24.4457 2.91434H25.8538C25.9803 2.91434 26.0491 3.00425 26.0596 3.18341V15.3516C26.0491 15.4888 25.9751 15.5682 25.8381 15.5892H24.4771C24.3395 15.5675 24.266 15.494 24.2555 15.3673ZM31.1277 4.63109C31.3913 3.58569 32.1458 3.02066 33.3907 2.93666C34.2875 2.873 34.9785 2.94716 35.4642 3.15781C36.403 3.56994 36.9255 4.34103 37.031 5.47109C37.0985 6.12745 36.9543 6.78821 36.6193 7.3565L36.5721 7.43525L32.9954 12.68C32.9142 12.7961 32.8699 12.934 32.8682 13.0757C32.8682 13.3612 32.9371 13.5515 33.0741 13.6467C33.2747 13.7412 33.4858 13.7779 33.7073 13.7569H36.8409C36.9464 13.7569 37.01 13.8468 37.031 14.026V15.3733C37.0205 15.4999 36.9464 15.5636 36.8094 15.5636C36.2076 15.5636 35.2505 15.5688 33.9368 15.5793C32.6231 15.5898 31.6659 15.5951 31.0641 15.5951C30.9166 15.5951 30.8373 15.5314 30.8268 15.4048L30.8111 13.0757C30.8111 12.7804 30.8478 12.5586 30.9219 12.4103L35.0368 6.485C35.2053 6.28484 35.2741 6.07813 35.2427 5.86747C35.2846 5.31819 34.9837 4.96447 34.3406 4.80566H33.4228C33.1803 4.80566 33.0059 4.93231 32.9004 5.18628C32.7948 5.30244 32.6414 5.33394 32.4415 5.28144L31.27 4.91656C31.1435 4.85356 31.0963 4.75775 31.1277 4.63109ZM46.7824 5.19547C46.6664 4.93166 46.4291 4.784 46.0705 4.7525H44.4086C44.2611 4.7525 44.1182 4.81813 43.9812 4.95003C43.8435 5.0826 43.7754 5.23222 43.7754 5.40153V12.8959C43.7754 13.0961 43.8573 13.27 44.0212 13.4183C44.1844 13.5666 44.3667 13.6401 44.5666 13.6401H46.1177C46.4238 13.6401 46.6506 13.5029 46.7981 13.228C46.8617 13.1118 46.9463 13.0705 47.0518 13.1013L48.5393 13.5449C48.7084 13.5771 48.7294 13.7195 48.6029 13.9728C48.2751 14.6068 47.8483 15.0504 47.3206 15.3037C46.8984 15.494 46.334 15.5892 45.6273 15.5892C45.4267 15.5892 45.0996 15.5787 44.6459 15.557C43.6967 15.515 42.9743 15.1455 42.478 14.4479C42.2669 14.1526 42.1083 13.7983 42.0027 13.3868L41.9713 13.165V13.0534L41.9555 12.9281V5.36938C41.9555 4.72494 42.2269 4.15531 42.7704 3.65853C43.3145 3.16175 43.9393 2.91369 44.6459 2.91369H46.1177C46.6139 2.91369 47.0617 3.04034 47.4629 3.29431C48.0332 3.65328 48.4337 4.12841 48.6658 4.71969C48.6973 4.83584 48.6763 4.91525 48.6029 4.95725L47.004 5.27422C46.9089 5.32672 46.8355 5.30047 46.7824 5.19547ZM52.8483 2.94584C54.0407 2.95634 55.0431 3.39734 55.8553 4.26884C56.6682 5.14034 57.0687 6.19363 57.0582 7.43L57.0268 11.0735C57.0163 12.1196 56.739 13.0199 56.1955 13.7746C55.6521 14.53 54.9008 15.0556 53.9404 15.3516C53.6664 15.4356 53.4291 15.494 53.2285 15.5255C52.9353 15.5708 52.6388 15.5921 52.3422 15.5892H50.0628C49.8838 15.5892 49.8045 15.5038 49.8255 15.3352V14.0207C49.8255 13.8829 49.8943 13.7937 50.0313 13.7517C50.2214 13.6985 50.3158 13.5554 50.3158 13.3231V5.11672C50.3158 4.86341 50.2051 4.73609 49.9841 4.73609C49.8786 4.73609 49.8255 4.66785 49.8255 4.53069V3.15256C49.8255 2.99375 49.9101 2.91434 50.0785 2.91434L52.8483 2.94584ZM52.1206 5.14559V13.6933C52.1206 13.8731 52.1842 13.9623 52.3107 13.9623C53.1124 13.9413 53.7772 13.688 54.3049 13.2024C54.8326 12.7168 55.1066 12.1668 55.1276 11.5545L55.144 7.65706C55.144 6.79081 54.8425 6.09388 54.2413 5.56559C53.7142 5.09047 53.0652 4.86341 52.295 4.88441C52.1573 4.88441 52.0996 4.97431 52.1206 5.15347V5.14559ZM7.29108 17.2482L8.38782 18.9098V17.2331C8.38782 17.1241 8.41142 17.0428 8.45796 16.9883C8.4812 16.9612 8.51026 16.9398 8.54296 16.9256C8.57566 16.9114 8.61115 16.9048 8.64676 16.9063C8.72871 16.9063 8.79361 16.9338 8.84081 16.9883C8.88866 17.0428 8.91226 17.1241 8.91226 17.2331V19.4499C8.91226 19.6973 8.80934 19.8207 8.60481 19.8207C8.55856 19.8229 8.51232 19.8159 8.46878 19.8001C8.42524 19.7843 8.38524 19.7601 8.35111 19.7288C8.31384 19.6949 8.28043 19.6571 8.25146 19.6159C8.22042 19.5725 8.18983 19.5287 8.15969 19.4847L7.08916 17.8427V19.4938C7.08916 19.6015 7.06425 19.6828 7.01443 19.738C6.99037 19.7649 6.96071 19.7863 6.92753 19.8006C6.89435 19.8149 6.85845 19.8217 6.82235 19.8207C6.78584 19.8222 6.74946 19.8155 6.71588 19.801C6.6823 19.7866 6.65238 19.7648 6.62831 19.7373C6.5798 19.6815 6.55554 19.6002 6.55554 19.4945V17.3197C6.55554 17.2278 6.56603 17.155 6.58635 17.1025C6.61112 17.044 6.65322 16.9945 6.70698 16.9607C6.76123 16.9249 6.82487 16.9059 6.88988 16.9063C6.94101 16.9063 6.98493 16.9148 7.02099 16.9312C7.0577 16.9476 7.08982 16.9706 7.11735 16.9988C7.14489 17.027 7.17308 17.0631 7.20192 17.1084L7.29108 17.2482ZM12.013 17.3945H10.7282V18.0875H11.9114C11.998 18.0875 12.0635 18.1072 12.1061 18.1466C12.1487 18.1853 12.1704 18.2365 12.1704 18.3008C12.1715 18.3299 12.1665 18.3589 12.1557 18.3859C12.1448 18.413 12.1284 18.4374 12.1074 18.4576C12.0648 18.4977 11.9993 18.518 11.9108 18.518H10.7282V19.3199H12.057C12.1468 19.3199 12.2143 19.3403 12.2602 19.3823C12.3054 19.4236 12.3277 19.4794 12.3277 19.5483C12.3288 19.5788 12.3233 19.6091 12.3115 19.6372C12.2998 19.6653 12.282 19.6905 12.2595 19.7111C12.2143 19.7524 12.1468 19.7734 12.057 19.7734H10.5072C10.3827 19.7734 10.2935 19.7458 10.2391 19.6907C10.1847 19.6356 10.1578 19.5463 10.1578 19.4236V17.3046C10.1578 17.2226 10.1696 17.1556 10.1945 17.1038C10.2174 17.0533 10.258 17.0129 10.3086 16.9903C10.3716 16.9645 10.4393 16.9524 10.5072 16.9548H12.013C12.1042 16.9548 12.1717 16.9752 12.2156 17.0158C12.2374 17.0358 12.2546 17.0603 12.2661 17.0877C12.2775 17.115 12.2829 17.1444 12.2818 17.174C12.2831 17.204 12.2779 17.2339 12.2664 17.2617C12.255 17.2895 12.2377 17.3144 12.2156 17.3348C12.1717 17.3748 12.1042 17.3952 12.013 17.3952V17.3945ZM15.0043 19.3285L14.5494 17.6386L14.0879 19.3285C14.0631 19.4214 14.0347 19.5134 14.0027 19.6041C13.9796 19.6631 13.9417 19.7151 13.8925 19.755C13.8327 19.8014 13.7583 19.8247 13.6827 19.8207C13.6224 19.823 13.5625 19.8094 13.509 19.7813C13.4632 19.7544 13.4252 19.716 13.3989 19.6697C13.3683 19.6162 13.345 19.5588 13.3294 19.4991C13.3117 19.4335 13.2953 19.3718 13.2815 19.3153L12.8128 17.4175C12.7892 17.3356 12.7752 17.2512 12.7709 17.1661C12.7709 17.0926 12.7964 17.0309 12.8476 16.9811C12.8726 16.9565 12.9024 16.9372 12.935 16.9244C12.9677 16.9115 13.0026 16.9054 13.0377 16.9063C13.1413 16.9063 13.2107 16.9391 13.2475 17.006C13.2829 17.0729 13.3143 17.1701 13.3412 17.2967L13.7096 18.9426L14.1226 17.4024C14.1534 17.2843 14.181 17.1943 14.2052 17.1333C14.2305 17.0707 14.2716 17.0157 14.3245 16.9738C14.3893 16.9257 14.4689 16.9018 14.5494 16.9063C14.6298 16.9015 14.7091 16.9264 14.7723 16.9765C14.8216 17.0173 14.8599 17.0699 14.8837 17.1294C14.9034 17.1845 14.9316 17.2751 14.9657 17.4024L15.3826 18.9426L15.751 17.2967C15.7694 17.2108 15.7864 17.1432 15.8022 17.0946C15.8187 17.0448 15.847 16.9998 15.8848 16.9633C15.9241 16.9253 15.9805 16.9063 16.0552 16.9063C16.1293 16.9063 16.1922 16.9312 16.244 16.9804C16.2964 17.0296 16.322 17.092 16.322 17.1661C16.322 17.2186 16.3076 17.3026 16.2794 17.4175L15.8107 19.3153C15.7883 19.4105 15.7619 19.5047 15.7314 19.5975C15.7095 19.6579 15.6724 19.7117 15.6238 19.7537C15.5632 19.8019 15.4868 19.8257 15.4095 19.8207C15.334 19.8245 15.2596 19.8012 15.1997 19.755C15.1513 19.7166 15.1137 19.6662 15.0909 19.6087C15.0586 19.5164 15.0297 19.4229 15.0043 19.3285ZM21.5914 18.9268C21.5914 19.0975 21.5481 19.2504 21.4603 19.3862C21.3724 19.5221 21.2439 19.629 21.0748 19.7058C20.8849 19.7867 20.6799 19.8259 20.4736 19.8207C20.1963 19.8207 19.9669 19.7682 19.7866 19.6632C19.6596 19.5889 19.5524 19.4851 19.4739 19.3606C19.3995 19.252 19.3579 19.1242 19.354 18.9925C19.354 18.9229 19.3782 18.8638 19.4261 18.8146C19.4498 18.7902 19.4784 18.7709 19.51 18.7582C19.5416 18.7454 19.5756 18.7394 19.6096 18.7405C19.6699 18.7405 19.7211 18.7602 19.7624 18.7982C19.8101 18.8464 19.8464 18.9047 19.8686 18.9688C19.9046 19.0588 19.9433 19.1342 19.9853 19.1939C20.0306 19.2574 20.091 19.3086 20.1609 19.3429C20.2541 19.3859 20.3561 19.4061 20.4586 19.402C20.6277 19.402 20.7647 19.3626 20.8703 19.2838C20.9189 19.2515 20.9588 19.2076 20.9865 19.1561C21.0142 19.1046 21.0287 19.047 21.0289 18.9885C21.0307 18.9468 21.024 18.9051 21.0094 18.866C20.9947 18.8269 20.9724 18.7911 20.9437 18.7608C20.8817 18.6993 20.806 18.6534 20.7228 18.6269C20.6036 18.5882 20.4826 18.5553 20.3602 18.5285C20.186 18.4904 20.016 18.4347 19.8528 18.3625C19.724 18.3054 19.612 18.2162 19.5277 18.1033C19.4446 17.9835 19.4025 17.8401 19.4077 17.6944C19.4077 17.5395 19.4503 17.4017 19.5349 17.281C19.6195 17.1609 19.7414 17.0683 19.902 17.0034C20.0613 16.9384 20.2494 16.9063 20.4658 16.9063C20.6388 16.9063 20.7883 16.9279 20.9148 16.9706C21.0407 17.0139 21.1456 17.0703 21.2288 17.1412C21.3121 17.2134 21.3731 17.2875 21.4111 17.3656C21.4498 17.4444 21.4688 17.5205 21.4688 17.5947C21.4687 17.6628 21.443 17.7284 21.3967 17.7784C21.3746 17.8045 21.3471 17.8253 21.316 17.8394C21.285 17.8535 21.2511 17.8604 21.217 17.8598C21.1515 17.8598 21.1023 17.8434 21.0682 17.8106C21.0238 17.7629 20.9867 17.709 20.9581 17.6504C20.9151 17.555 20.852 17.4699 20.7732 17.4011C20.7018 17.342 20.5864 17.3118 20.4278 17.3118C20.2803 17.3118 20.1616 17.3446 20.0718 17.4089C19.9813 17.4739 19.9361 17.5513 19.9361 17.6426C19.9361 17.699 19.9512 17.7476 19.982 17.7889C20.0164 17.8326 20.0597 17.8684 20.1092 17.8939C20.1629 17.9241 20.2173 17.9464 20.2724 17.9635C20.3275 17.9805 20.4179 18.0048 20.5451 18.037C20.7037 18.0737 20.8473 18.1151 20.9758 18.1597C21.1049 18.205 21.2144 18.2594 21.3042 18.3238C21.3947 18.3874 21.4655 18.4681 21.516 18.5666C21.5665 18.665 21.5914 18.7838 21.5914 18.9268ZM23.7403 16.9063C24.0327 16.9063 24.2831 16.9653 24.4922 17.0841C24.702 17.2022 24.86 17.3709 24.9675 17.5894C25.075 17.8086 25.1294 18.0652 25.1294 18.3598C25.1294 18.5777 25.0999 18.7759 25.0409 18.9538C24.9819 19.1323 24.8934 19.2865 24.7754 19.4171C24.6574 19.5483 24.5132 19.6481 24.3414 19.717C24.1532 19.7892 23.9529 19.8244 23.7514 19.8207C23.5495 19.824 23.3489 19.7879 23.1608 19.7143C22.9944 19.6485 22.8453 19.5455 22.7248 19.4131C22.6049 19.2777 22.5148 19.1185 22.4606 18.9459C22.3996 18.7552 22.3693 18.5561 22.3708 18.3559C22.3708 18.1393 22.4023 17.9405 22.4646 17.76C22.5262 17.5789 22.6167 17.4253 22.734 17.2987C22.8537 17.1705 23.0007 17.0709 23.164 17.0073C23.3332 16.9397 23.5246 16.9063 23.7403 16.9063ZM24.5512 18.3559C24.5512 18.1498 24.5178 17.9707 24.4509 17.8198C24.3931 17.6789 24.2935 17.5591 24.1657 17.4765C24.038 17.3976 23.8903 17.3571 23.7403 17.3597C23.6269 17.3597 23.5213 17.3814 23.4243 17.4247C23.3279 17.4673 23.2447 17.5297 23.1752 17.6117C23.105 17.6938 23.0506 17.7988 23.01 17.9267C22.9679 18.0658 22.9473 18.2106 22.949 18.3559C22.949 18.516 22.9693 18.6611 23.01 18.7903C23.05 18.9196 23.107 19.0266 23.1804 19.1119C23.2499 19.1944 23.3369 19.2601 23.4352 19.3043C23.5335 19.3485 23.6404 19.37 23.7481 19.3672C23.8943 19.3672 24.0281 19.3304 24.1507 19.2576C24.2726 19.1848 24.3703 19.0719 24.4424 18.919C24.5145 18.7667 24.5512 18.579 24.5512 18.3559ZM25.785 18.6079V17.2521C25.785 17.1373 25.8112 17.0506 25.8623 16.9929C25.888 16.9643 25.9196 16.9418 25.955 16.9268C25.9903 16.9119 26.0285 16.9048 26.0668 16.9063C26.1061 16.9044 26.1453 16.9112 26.1817 16.9262C26.218 16.9411 26.2507 16.9639 26.2773 16.9929C26.3297 17.0506 26.3553 17.1373 26.3553 17.2521V18.6388C26.3553 18.7963 26.3723 18.9275 26.4077 19.0338C26.4397 19.1352 26.506 19.2223 26.5952 19.2799C26.685 19.3383 26.8102 19.3672 26.9715 19.3672C27.1944 19.3672 27.3517 19.3081 27.4435 19.1893C27.5359 19.0712 27.5825 18.8908 27.5825 18.6499V17.2521C27.5825 17.1359 27.6081 17.0487 27.6592 16.9916C27.6851 16.9632 27.7169 16.9408 27.7523 16.9261C27.7878 16.9113 27.826 16.9046 27.8644 16.9063C27.9503 16.9063 28.0197 16.9345 28.0728 16.9916C28.1259 17.0487 28.1528 17.1359 28.1528 17.2521V18.6079C28.1528 18.8284 28.1312 19.0122 28.0886 19.1592C28.0447 19.3084 27.9608 19.4428 27.846 19.5477C27.7436 19.6427 27.6213 19.7137 27.4881 19.7557C27.3524 19.799 27.1931 19.8213 27.0122 19.8213C26.7958 19.8213 26.609 19.7977 26.453 19.7504C26.3096 19.7112 26.1782 19.6367 26.0708 19.5339C25.9724 19.4354 25.9003 19.3101 25.8538 19.1565C25.8045 18.978 25.7813 18.7932 25.785 18.6079ZM30.7613 17.4253H30.1392V19.4728C30.1392 19.591 30.1129 19.6783 30.0605 19.7353C30.0347 19.7634 30.0033 19.7855 29.9682 19.8002C29.9331 19.815 29.8953 19.8219 29.8573 19.8207C29.8186 19.8221 29.78 19.8152 29.7443 19.8004C29.7085 19.7856 29.6764 19.7631 29.6501 19.7347C29.5977 19.6769 29.5708 19.5897 29.5708 19.4728V17.4253H28.948C28.851 17.4253 28.7789 17.4037 28.7317 17.361C28.708 17.3396 28.6894 17.3131 28.677 17.2837C28.6647 17.2542 28.6589 17.2223 28.6602 17.1904C28.6602 17.1182 28.6851 17.0598 28.7343 17.0178C28.7835 16.9752 28.8549 16.9542 28.9487 16.9542H30.7613C30.8596 16.9542 30.9337 16.9758 30.9815 17.0198C31.0294 17.0631 31.0537 17.1202 31.0537 17.1904C31.0549 17.2225 31.0489 17.2545 31.0362 17.284C31.0235 17.3135 31.0044 17.3399 30.9802 17.361C30.9317 17.4037 30.859 17.4253 30.7613 17.4253ZM32.1294 17.2521V18.0593H33.3606V17.2521C33.3606 17.1373 33.3868 17.0506 33.4386 16.9929C33.4642 16.9643 33.4959 16.9418 33.5312 16.9268C33.5666 16.9119 33.6048 16.9048 33.6431 16.9063C33.7283 16.9063 33.7985 16.9345 33.8516 16.9916C33.904 17.0487 33.9309 17.1359 33.9309 17.2521V19.4728C33.9309 19.5897 33.9047 19.6763 33.8503 19.7347C33.8239 19.763 33.7917 19.7853 33.756 19.8002C33.7203 19.815 33.6818 19.822 33.6431 19.8207C33.6045 19.8223 33.5659 19.8154 33.5303 19.8003C33.4947 19.7852 33.4629 19.7623 33.4373 19.7334C33.3861 19.675 33.3606 19.5883 33.3606 19.4728V18.5252H32.1294V19.4728C32.1294 19.5897 32.1032 19.6763 32.0488 19.7347C32.0224 19.763 31.9903 19.7853 31.9545 19.8002C31.9188 19.815 31.8803 19.822 31.8416 19.8207C31.803 19.8223 31.7645 19.8154 31.7289 19.8003C31.6933 19.7852 31.6615 19.7623 31.6358 19.7334C31.5847 19.675 31.5591 19.5883 31.5591 19.4728V17.2521C31.5591 17.1373 31.5847 17.0506 31.6351 16.9929C31.661 16.964 31.6929 16.9412 31.7286 16.9263C31.7643 16.9113 31.8029 16.9044 31.8416 16.9063C31.9269 16.9063 31.997 16.9345 32.0501 16.9916C32.1025 17.0487 32.1294 17.1359 32.1294 17.2521ZM39.2252 19.3285L38.7702 17.6386L38.3087 19.3285C38.2839 19.4214 38.2555 19.5134 38.2235 19.6041C38.2004 19.6631 38.1625 19.7151 38.1133 19.755C38.0536 19.8014 37.9791 19.8247 37.9036 19.8207C37.8432 19.823 37.7833 19.8094 37.7298 19.7813C37.684 19.7544 37.646 19.716 37.6197 19.6697C37.5891 19.6162 37.5658 19.5588 37.5502 19.4991C37.5325 19.4335 37.5161 19.3718 37.5024 19.3153L37.0336 17.4175C37.0101 17.3356 36.996 17.2512 36.9917 17.1661C36.9917 17.0926 37.0172 17.0309 37.0684 16.9811C37.0935 16.9565 37.1232 16.9372 37.1559 16.9244C37.1885 16.9115 37.2234 16.9054 37.2585 16.9063C37.3621 16.9063 37.4322 16.9391 37.4683 17.006C37.5037 17.0729 37.5351 17.1701 37.562 17.2967L37.9304 18.9426L38.3434 17.4024C38.3742 17.2843 38.4018 17.1943 38.426 17.1333C38.4513 17.0707 38.4924 17.0157 38.5453 16.9738C38.6101 16.9257 38.6897 16.9018 38.7702 16.9063C38.8506 16.9015 38.9299 16.9264 38.9931 16.9765C39.0424 17.0173 39.0807 17.0699 39.1045 17.1294C39.1242 17.1845 39.1524 17.2751 39.1865 17.4024L39.6034 18.9426L39.9725 17.2967C39.9902 17.2108 40.0072 17.1432 40.023 17.0946C40.0395 17.0448 40.0678 16.9998 40.1056 16.9633C40.1449 16.9253 40.2013 16.9063 40.276 16.9063C40.3501 16.9063 40.413 16.9312 40.4648 16.9804C40.5173 17.0296 40.5428 17.092 40.5428 17.1661C40.5428 17.2186 40.5284 17.3026 40.5002 17.4175L40.0315 19.3153C40.0091 19.4105 39.9827 19.5047 39.9522 19.5975C39.9303 19.6579 39.8933 19.7117 39.8447 19.7537C39.784 19.8019 39.7076 19.8257 39.6303 19.8207C39.5548 19.8245 39.4804 19.8012 39.4205 19.755C39.3721 19.7166 39.3346 19.6662 39.3117 19.6087C39.2794 19.5164 39.2505 19.4229 39.2252 19.3285ZM42.8209 19.4532L42.6865 19.1001H41.5419L41.4075 19.461C41.3551 19.6021 41.3098 19.6973 41.2725 19.7472C41.2357 19.7964 41.1748 19.8207 41.0902 19.8207C41.0549 19.8207 41.0199 19.8138 40.9873 19.8003C40.9547 19.7868 40.925 19.7669 40.9001 19.7419C40.8746 19.7196 40.8541 19.6922 40.8398 19.6615C40.8256 19.6307 40.818 19.5973 40.8175 19.5634C40.8175 19.5247 40.8241 19.4847 40.8372 19.444C40.8496 19.4033 40.8706 19.3455 40.9001 19.2733L41.6206 17.4424L41.6946 17.2534C41.7186 17.189 41.7493 17.1274 41.7864 17.0697C41.8193 17.0207 41.8634 16.9802 41.9149 16.9515C41.9754 16.9196 42.0432 16.904 42.1116 16.9063C42.1915 16.9063 42.2578 16.9213 42.3109 16.9515C42.362 16.9799 42.406 17.0196 42.4393 17.0677C42.4721 17.1149 42.4997 17.1661 42.5219 17.2206C42.5442 17.2751 42.5731 17.3479 42.6072 17.4391L43.3434 19.2576C43.401 19.3954 43.4299 19.4965 43.4299 19.5595C43.4299 19.6251 43.4024 19.6842 43.3479 19.7393C43.3224 19.7655 43.2918 19.7863 43.258 19.8003C43.2242 19.8143 43.1879 19.8212 43.1513 19.8207C43.1139 19.8224 43.0766 19.8152 43.0425 19.7997C43.0084 19.7842 42.9785 19.7608 42.9553 19.7314C42.9269 19.6922 42.9033 19.6496 42.8851 19.6048C42.8632 19.5547 42.8417 19.5037 42.8209 19.4532ZM41.6914 18.6709H42.5324L42.1083 17.508L41.6914 18.6709ZM44.5057 17.2521V19.3035H45.6614C45.7538 19.3035 45.8246 19.3258 45.8738 19.3711C45.8977 19.3922 45.9167 19.4183 45.9295 19.4476C45.9423 19.4768 45.9486 19.5085 45.9479 19.5404C45.9479 19.6093 45.9236 19.6651 45.8751 19.7084C45.8259 19.7511 45.7551 19.7728 45.6614 19.7728H44.2847C44.1602 19.7728 44.071 19.7452 44.0166 19.6901C43.9622 19.6349 43.9353 19.5457 43.9353 19.423V17.2521C43.9353 17.1373 43.9615 17.0506 44.0127 16.9929C44.0384 16.9643 44.07 16.9418 44.1053 16.9268C44.1407 16.9119 44.1789 16.9048 44.2172 16.9063C44.3031 16.9063 44.3726 16.9345 44.4257 16.9916C44.4788 17.0487 44.5057 17.1359 44.5057 17.2521ZM48.2758 17.3945H46.9909V18.0875H48.1741C48.2613 18.0875 48.3262 18.1072 48.3688 18.1466C48.4121 18.1853 48.4337 18.2365 48.4337 18.3008C48.4348 18.3299 48.4297 18.359 48.4187 18.386C48.4078 18.4131 48.3912 18.4375 48.3702 18.4576C48.3275 18.4977 48.2626 18.518 48.1741 18.518H46.9909V19.3199H48.3203C48.4095 19.3199 48.4777 19.3403 48.5229 19.3823C48.5688 19.4236 48.5911 19.4794 48.5911 19.5483C48.5922 19.5788 48.5867 19.6091 48.5749 19.6372C48.5631 19.6653 48.5454 19.6905 48.5229 19.7111C48.477 19.7524 48.4095 19.7734 48.3197 19.7734H46.7699C46.646 19.7734 46.5569 19.7458 46.5025 19.6907C46.4481 19.6356 46.4205 19.5463 46.4205 19.4236V17.3046C46.4205 17.2226 46.433 17.1556 46.4572 17.1038C46.4801 17.0533 46.5207 17.0129 46.5713 16.9903C46.6343 16.9645 46.702 16.9524 46.7699 16.9548H48.2758C48.3669 16.9548 48.4344 16.9752 48.479 17.0158C48.5007 17.0359 48.5177 17.0604 48.5291 17.0877C48.5404 17.115 48.5457 17.1445 48.5445 17.174C48.5459 17.204 48.5408 17.2339 48.5294 17.2616C48.5181 17.2894 48.5009 17.3143 48.479 17.3348C48.4344 17.3748 48.3669 17.3952 48.2758 17.3952V17.3945ZM51.2821 18.9268C51.2821 19.0975 51.2382 19.2504 51.151 19.3862C51.0625 19.5221 50.9347 19.629 50.7656 19.7058C50.5757 19.7867 50.3707 19.8259 50.1644 19.8207C49.8865 19.8207 49.657 19.7682 49.4767 19.6632C49.35 19.5888 49.243 19.4851 49.1647 19.3606C49.0903 19.252 49.0486 19.1242 49.0447 18.9925C49.0447 18.9229 49.0683 18.8638 49.1168 18.8146C49.1406 18.7902 49.1692 18.7709 49.2008 18.7582C49.2324 18.7454 49.2663 18.7394 49.3004 18.7405C49.36 18.7405 49.4112 18.7602 49.4525 18.7982C49.5004 18.8464 49.5369 18.9047 49.5593 18.9688C49.5954 19.0588 49.6341 19.1342 49.6754 19.1939C49.7207 19.2574 49.7811 19.3086 49.8511 19.3429C49.9442 19.3859 50.0462 19.4061 50.1487 19.402C50.3178 19.402 50.4555 19.3626 50.561 19.2838C50.6096 19.2514 50.6494 19.2075 50.6769 19.156C50.7045 19.1045 50.7189 19.047 50.719 18.9885C50.7208 18.9468 50.7141 18.9051 50.6995 18.866C50.6849 18.8269 50.6625 18.7911 50.6338 18.7608C50.5718 18.6993 50.4961 18.6534 50.4129 18.6269C50.2939 18.5882 50.1732 18.5553 50.051 18.5285C49.8765 18.4904 49.7063 18.4348 49.5429 18.3625C49.4144 18.3053 49.3026 18.2161 49.2184 18.1033C49.1353 17.9835 49.0932 17.8401 49.0985 17.6944C49.0985 17.5395 49.1404 17.4017 49.225 17.281C49.3102 17.1609 49.4322 17.0683 49.5921 17.0034C49.7521 16.9384 49.9402 16.9063 50.1565 16.9063C50.3296 16.9063 50.4791 16.9279 50.6049 16.9706C50.7315 17.0139 50.8357 17.0703 50.9196 17.1412C51.0022 17.2134 51.0632 17.2875 51.1012 17.3656C51.1405 17.4444 51.1589 17.5205 51.1589 17.5947C51.1588 17.6628 51.1331 17.7284 51.0868 17.7784C51.0648 17.8044 51.0374 17.8252 51.0064 17.8393C50.9755 17.8533 50.9418 17.8603 50.9078 17.8598C50.8423 17.8598 50.7924 17.8434 50.759 17.8106C50.7144 17.763 50.677 17.709 50.6482 17.6504C50.6054 17.555 50.5426 17.47 50.464 17.4011C50.3919 17.342 50.2772 17.3118 50.1179 17.3118C49.971 17.3118 49.8524 17.3446 49.7619 17.4089C49.6714 17.4739 49.6262 17.5513 49.6262 17.6426C49.6262 17.699 49.6419 17.7476 49.6721 17.7889C49.7065 17.8326 49.7498 17.8684 49.7993 17.8939C49.853 17.9241 49.9074 17.9464 49.9632 17.9635C50.0176 17.9805 50.1087 18.0048 50.2352 18.037C50.3939 18.0737 50.5381 18.1151 50.6666 18.1597C50.7951 18.205 50.9045 18.2594 50.9943 18.3238C51.0855 18.3874 51.1556 18.4681 51.2061 18.5666C51.2566 18.665 51.2821 18.7838 51.2821 18.9268Z" fill="black"/>
</g>
<defs>
<filter id="filter0_d_326_22892" x="-4.17224" y="0.328125" width="67.3444" height="29.3438" filterUnits="userSpaceOnUse" color-interpolation-filters="sRGB">
<feFlood flood-opacity="0" result="BackgroundImageFix"/>
<feColorMatrix in="SourceAlpha" type="matrix" values="0 0 0 0 0 0 0 0 0 0 0 0 0 0 0 0 0 0 127 0" result="hardAlpha"/>
<feOffset dy="4"/>
<feGaussianBlur stdDeviation="2"/>
<feComposite in2="hardAlpha" operator="out"/>
<feColorMatrix type="matrix" values="0 0 0 0 0 0 0 0 0 0 0 0 0 0 0 0 0 0 0.25 0"/>
<feBlend mode="normal" in2="BackgroundImageFix" result="effect1_dropShadow_326_22892"/>
<feBlend mode="normal" in="SourceGraphic" in2="effect1_dropShadow_326_22892" result="shape"/>
</filter>
</defs>
</svg>
