<svg width="251" height="74" viewBox="0 0 251 74" fill="none" xmlns="http://www.w3.org/2000/svg">
<g filter="url(#filter0_d_643_24292)">
<path opacity="0.7" d="M23.036 29V19.2H24.212V28.062H28.776V29H23.036ZM33.1427 29.168C32.48 29.168 31.892 29.0187 31.3787 28.72C30.8654 28.412 30.4594 27.9873 30.1607 27.446C29.8714 26.9047 29.7267 26.2653 29.7267 25.528C29.7267 24.8 29.8714 24.1653 30.1607 23.624C30.45 23.0733 30.8514 22.6487 31.3647 22.35C31.8874 22.042 32.4894 21.888 33.1707 21.888C33.8427 21.888 34.4214 22.042 34.9067 22.35C35.4014 22.6487 35.7794 23.0453 36.0407 23.54C36.302 24.0347 36.4327 24.5667 36.4327 25.136C36.4327 25.2387 36.428 25.3413 36.4187 25.444C36.4187 25.5467 36.4187 25.6633 36.4187 25.794H30.8887C30.9167 26.326 31.038 26.7693 31.2527 27.124C31.4767 27.4693 31.752 27.7307 32.0787 27.908C32.4147 28.0853 32.7694 28.174 33.1427 28.174C33.628 28.174 34.034 28.062 34.3607 27.838C34.6874 27.614 34.9254 27.3107 35.0747 26.928H36.2367C36.05 27.572 35.6907 28.1087 35.1587 28.538C34.636 28.958 33.964 29.168 33.1427 29.168ZM33.1427 22.882C32.5827 22.882 32.0834 23.0547 31.6447 23.4C31.2154 23.736 30.968 24.2307 30.9027 24.884H35.2707C35.2427 24.2587 35.028 23.7687 34.6267 23.414C34.2254 23.0593 33.7307 22.882 33.1427 22.882ZM40.503 29C39.8683 29 39.369 28.846 39.005 28.538C38.641 28.23 38.459 27.6747 38.459 26.872V23.05H37.255V22.056H38.459L38.613 20.39H39.635V22.056H41.679V23.05H39.635V26.872C39.635 27.3107 39.7236 27.6093 39.901 27.768C40.0783 27.9173 40.391 27.992 40.839 27.992H41.567V29H40.503ZM45.833 29.168C45.0024 29.168 44.3117 28.958 43.761 28.538C43.2104 28.118 42.8884 27.5487 42.795 26.83H43.999C44.0737 27.194 44.265 27.5113 44.573 27.782C44.8904 28.0433 45.315 28.174 45.847 28.174C46.3417 28.174 46.7057 28.0713 46.939 27.866C47.1724 27.6513 47.289 27.3993 47.289 27.11C47.289 26.69 47.135 26.41 46.827 26.27C46.5284 26.13 46.1037 26.004 45.553 25.892C45.1797 25.8173 44.8064 25.71 44.433 25.57C44.0597 25.43 43.747 25.234 43.495 24.982C43.243 24.7207 43.117 24.38 43.117 23.96C43.117 23.3533 43.341 22.8587 43.789 22.476C44.2464 22.084 44.8624 21.888 45.637 21.888C46.3744 21.888 46.9764 22.0747 47.443 22.448C47.919 22.812 48.1944 23.3347 48.269 24.016H47.107C47.0604 23.6613 46.9064 23.386 46.645 23.19C46.393 22.9847 46.0524 22.882 45.623 22.882C45.203 22.882 44.8764 22.9707 44.643 23.148C44.419 23.3253 44.307 23.5587 44.307 23.848C44.307 24.128 44.4517 24.3473 44.741 24.506C45.0397 24.6647 45.441 24.8 45.945 24.912C46.3744 25.0053 46.7804 25.122 47.163 25.262C47.555 25.3927 47.8724 25.5933 48.115 25.864C48.367 26.1253 48.493 26.508 48.493 27.012C48.5024 27.6373 48.2644 28.1553 47.779 28.566C47.303 28.9673 46.6544 29.168 45.833 29.168ZM54.2561 29V23.05H53.2061V22.056H54.2561V20.852C54.2561 20.18 54.4241 19.69 54.7601 19.382C55.0961 19.074 55.5861 18.92 56.2301 18.92H56.9301V19.928H56.4121C56.0574 19.928 55.8054 20.0027 55.6561 20.152C55.5068 20.292 55.4321 20.5347 55.4321 20.88V22.056H59.7441V29H58.5681V23.05H55.4321V29H54.2561ZM59.1701 20.726C58.9461 20.726 58.7548 20.6513 58.5961 20.502C58.4374 20.3433 58.3581 20.1473 58.3581 19.914C58.3581 19.69 58.4374 19.5033 58.5961 19.354C58.7548 19.2047 58.9461 19.13 59.1701 19.13C59.4034 19.13 59.5948 19.2047 59.7441 19.354C59.9028 19.5033 59.9821 19.69 59.9821 19.914C59.9821 20.1473 59.9028 20.3433 59.7441 20.502C59.5948 20.6513 59.4034 20.726 59.1701 20.726ZM61.8215 29V22.056H62.8855L62.9555 23.302C63.1795 22.8633 63.5015 22.518 63.9215 22.266C64.3415 22.014 64.8175 21.888 65.3495 21.888C66.1708 21.888 66.8241 22.14 67.3095 22.644C67.8041 23.1387 68.0515 23.904 68.0515 24.94V29H66.8755V25.066C66.8755 23.6193 66.2781 22.896 65.0835 22.896C64.4861 22.896 63.9868 23.1153 63.5855 23.554C63.1935 23.9833 62.9975 24.5993 62.9975 25.402V29H61.8215ZM72.9832 29.168C72.2925 29.168 71.6859 29.0093 71.1632 28.692C70.6499 28.3747 70.2485 27.9407 69.9592 27.39C69.6792 26.8393 69.5392 26.214 69.5392 25.514C69.5392 24.814 69.6839 24.1933 69.9732 23.652C70.2625 23.1013 70.6639 22.672 71.1772 22.364C71.6905 22.0467 72.2972 21.888 72.9972 21.888C73.5665 21.888 74.0705 22.0047 74.5092 22.238C74.9479 22.4713 75.2885 22.798 75.5312 23.218V18.92H76.7072V29H75.6432L75.5312 27.852C75.3072 28.188 74.9852 28.4913 74.5652 28.762C74.1452 29.0327 73.6179 29.168 72.9832 29.168ZM73.1092 28.146C73.5759 28.146 73.9865 28.0387 74.3412 27.824C74.7052 27.6 74.9852 27.292 75.1812 26.9C75.3865 26.508 75.4892 26.0507 75.4892 25.528C75.4892 25.0053 75.3865 24.548 75.1812 24.156C74.9852 23.764 74.7052 23.4607 74.3412 23.246C73.9865 23.022 73.5759 22.91 73.1092 22.91C72.6519 22.91 72.2412 23.022 71.8772 23.246C71.5225 23.4607 71.2425 23.764 71.0372 24.156C70.8412 24.548 70.7432 25.0053 70.7432 25.528C70.7432 26.0507 70.8412 26.508 71.0372 26.9C71.2425 27.292 71.5225 27.6 71.8772 27.824C72.2412 28.0387 72.6519 28.146 73.1092 28.146ZM83.0853 32.08L84.8073 28.328H84.4013L81.6433 22.056H82.9173L85.2133 27.46L87.6493 22.056H88.8673L84.3173 32.08H83.0853ZM92.6163 29.168C91.963 29.168 91.375 29.0187 90.8523 28.72C90.3297 28.4213 89.9143 28.0013 89.6063 27.46C89.3077 26.9093 89.1583 26.2653 89.1583 25.528C89.1583 24.7907 89.3123 24.1513 89.6203 23.61C89.9283 23.0593 90.3437 22.6347 90.8663 22.336C91.3983 22.0373 91.991 21.888 92.6443 21.888C93.2977 21.888 93.8857 22.0373 94.4083 22.336C94.931 22.6347 95.3417 23.0593 95.6403 23.61C95.9483 24.1513 96.1023 24.7907 96.1023 25.528C96.1023 26.2653 95.9483 26.9093 95.6403 27.46C95.3323 28.0013 94.9123 28.4213 94.3803 28.72C93.8577 29.0187 93.2697 29.168 92.6163 29.168ZM92.6163 28.16C93.0177 28.16 93.391 28.062 93.7363 27.866C94.0817 27.67 94.3617 27.376 94.5763 26.984C94.791 26.592 94.8983 26.1067 94.8983 25.528C94.8983 24.9493 94.791 24.464 94.5763 24.072C94.371 23.68 94.0957 23.386 93.7503 23.19C93.405 22.994 93.0363 22.896 92.6443 22.896C92.243 22.896 91.8697 22.994 91.5243 23.19C91.179 23.386 90.899 23.68 90.6843 24.072C90.4697 24.464 90.3623 24.9493 90.3623 25.528C90.3623 26.1067 90.4697 26.592 90.6843 26.984C90.899 27.376 91.1743 27.67 91.5103 27.866C91.8557 28.062 92.2243 28.16 92.6163 28.16ZM100.271 29.168C99.4502 29.168 98.7968 28.9207 98.3115 28.426C97.8262 27.922 97.5835 27.152 97.5835 26.116V22.056H98.7595V25.99C98.7595 27.4367 99.3522 28.16 100.537 28.16C101.144 28.16 101.643 27.9453 102.035 27.516C102.437 27.0773 102.637 26.4567 102.637 25.654V22.056H103.813V29H102.749L102.665 27.754C102.451 28.1927 102.129 28.538 101.699 28.79C101.279 29.042 100.803 29.168 100.271 29.168ZM105.749 29V22.056H106.813L106.911 23.386C107.126 22.9287 107.453 22.5647 107.891 22.294C108.33 22.0233 108.871 21.888 109.515 21.888V23.12H109.193C108.783 23.12 108.405 23.1947 108.059 23.344C107.714 23.484 107.439 23.7267 107.233 24.072C107.028 24.4173 106.925 24.8933 106.925 25.5V29H105.749ZM114.54 29V22.056H115.604L115.702 23.386C115.917 22.9287 116.244 22.5647 116.682 22.294C117.121 22.0233 117.662 21.888 118.306 21.888V23.12H117.984C117.574 23.12 117.196 23.1947 116.85 23.344C116.505 23.484 116.23 23.7267 116.024 24.072C115.819 24.4173 115.716 24.8933 115.716 25.5V29H114.54ZM120.34 20.516C120.107 20.516 119.911 20.4413 119.752 20.292C119.603 20.1333 119.528 19.9373 119.528 19.704C119.528 19.48 119.603 19.2933 119.752 19.144C119.911 18.9947 120.107 18.92 120.34 18.92C120.564 18.92 120.755 18.9947 120.914 19.144C121.073 19.2933 121.152 19.48 121.152 19.704C121.152 19.9373 121.073 20.1333 120.914 20.292C120.755 20.4413 120.564 20.516 120.34 20.516ZM119.752 29V22.056H120.928V29H119.752ZM126.126 29.168C125.435 29.168 124.828 29.0093 124.306 28.692C123.792 28.3747 123.391 27.9407 123.102 27.39C122.822 26.8393 122.682 26.214 122.682 25.514C122.682 24.814 122.826 24.1933 123.116 23.652C123.405 23.1013 123.806 22.672 124.32 22.364C124.833 22.0467 125.44 21.888 126.14 21.888C126.709 21.888 127.213 22.0047 127.652 22.238C128.09 22.4713 128.431 22.798 128.674 23.218V18.92H129.85V29H128.786L128.674 27.852C128.45 28.188 128.128 28.4913 127.708 28.762C127.288 29.0327 126.76 29.168 126.126 29.168ZM126.252 28.146C126.718 28.146 127.129 28.0387 127.484 27.824C127.848 27.6 128.128 27.292 128.324 26.9C128.529 26.508 128.632 26.0507 128.632 25.528C128.632 25.0053 128.529 24.548 128.324 24.156C128.128 23.764 127.848 23.4607 127.484 23.246C127.129 23.022 126.718 22.91 126.252 22.91C125.794 22.91 125.384 23.022 125.02 23.246C124.665 23.4607 124.385 23.764 124.18 24.156C123.984 24.548 123.886 25.0053 123.886 25.528C123.886 26.0507 123.984 26.508 124.18 26.9C124.385 27.292 124.665 27.6 125.02 27.824C125.384 28.0387 125.794 28.146 126.252 28.146ZM134.889 29.168C134.226 29.168 133.638 29.0187 133.125 28.72C132.611 28.412 132.205 27.9873 131.907 27.446C131.617 26.9047 131.473 26.2653 131.473 25.528C131.473 24.8 131.617 24.1653 131.907 23.624C132.196 23.0733 132.597 22.6487 133.111 22.35C133.633 22.042 134.235 21.888 134.917 21.888C135.589 21.888 136.167 22.042 136.653 22.35C137.147 22.6487 137.525 23.0453 137.787 23.54C138.048 24.0347 138.179 24.5667 138.179 25.136C138.179 25.2387 138.174 25.3413 138.165 25.444C138.165 25.5467 138.165 25.6633 138.165 25.794H132.635C132.663 26.326 132.784 26.7693 132.999 27.124C133.223 27.4693 133.498 27.7307 133.825 27.908C134.161 28.0853 134.515 28.174 134.889 28.174C135.374 28.174 135.78 28.062 136.107 27.838C136.433 27.614 136.671 27.3107 136.821 26.928H137.983C137.796 27.572 137.437 28.1087 136.905 28.538C136.382 28.958 135.71 29.168 134.889 29.168ZM134.889 22.882C134.329 22.882 133.829 23.0547 133.391 23.4C132.961 23.736 132.714 24.2307 132.649 24.884H137.017C136.989 24.2587 136.774 23.7687 136.373 23.414C135.971 23.0593 135.477 22.882 134.889 22.882ZM139.989 26.284L139.849 19.2H141.123L140.983 26.284H139.989ZM140.521 29.07C140.288 29.07 140.092 28.9953 139.933 28.846C139.784 28.6873 139.709 28.496 139.709 28.272C139.709 28.048 139.784 27.8613 139.933 27.712C140.092 27.5533 140.288 27.474 140.521 27.474C140.745 27.474 140.932 27.5533 141.081 27.712C141.24 27.8613 141.319 28.048 141.319 28.272C141.319 28.496 141.24 28.6873 141.081 28.846C140.932 28.9953 140.745 29.07 140.521 29.07ZM146.985 29V19.2H153.047V20.166H148.161V23.582H152.627V24.534H148.161V28.034H153.047V29H146.985ZM154.818 29V22.056H155.882L155.952 23.302C156.176 22.8633 156.498 22.518 156.918 22.266C157.338 22.014 157.814 21.888 158.346 21.888C159.167 21.888 159.82 22.14 160.306 22.644C160.8 23.1387 161.048 23.904 161.048 24.94V29H159.872V25.066C159.872 23.6193 159.274 22.896 158.08 22.896C157.482 22.896 156.983 23.1153 156.582 23.554C156.19 23.9833 155.994 24.5993 155.994 25.402V29H154.818ZM165.573 29C164.939 29 164.439 28.846 164.075 28.538C163.711 28.23 163.529 27.6747 163.529 26.872V23.05H162.325V22.056H163.529L163.683 20.39H164.705V22.056H166.749V23.05H164.705V26.872C164.705 27.3107 164.794 27.6093 164.971 27.768C165.149 27.9173 165.461 27.992 165.909 27.992H166.637V29H165.573ZM171.174 29.168C170.511 29.168 169.923 29.0187 169.41 28.72C168.897 28.412 168.491 27.9873 168.192 27.446C167.903 26.9047 167.758 26.2653 167.758 25.528C167.758 24.8 167.903 24.1653 168.192 23.624C168.481 23.0733 168.883 22.6487 169.396 22.35C169.919 22.042 170.521 21.888 171.202 21.888C171.874 21.888 172.453 22.042 172.938 22.35C173.433 22.6487 173.811 23.0453 174.072 23.54C174.333 24.0347 174.464 24.5667 174.464 25.136C174.464 25.2387 174.459 25.3413 174.45 25.444C174.45 25.5467 174.45 25.6633 174.45 25.794H168.92C168.948 26.326 169.069 26.7693 169.284 27.124C169.508 27.4693 169.783 27.7307 170.11 27.908C170.446 28.0853 170.801 28.174 171.174 28.174C171.659 28.174 172.065 28.062 172.392 27.838C172.719 27.614 172.957 27.3107 173.106 26.928H174.268C174.081 27.572 173.722 28.1087 173.19 28.538C172.667 28.958 171.995 29.168 171.174 29.168ZM171.174 22.882C170.614 22.882 170.115 23.0547 169.676 23.4C169.247 23.736 168.999 24.2307 168.934 24.884H173.302C173.274 24.2587 173.059 23.7687 172.658 23.414C172.257 23.0593 171.762 22.882 171.174 22.882ZM176.023 29V22.056H177.087L177.185 23.386C177.399 22.9287 177.726 22.5647 178.165 22.294C178.603 22.0233 179.145 21.888 179.789 21.888V23.12H179.467C179.056 23.12 178.678 23.1947 178.333 23.344C177.987 23.484 177.712 23.7267 177.507 24.072C177.301 24.4173 177.199 24.8933 177.199 25.5V29H176.023ZM185.528 20.516C185.294 20.516 185.098 20.4413 184.94 20.292C184.79 20.1333 184.716 19.9373 184.716 19.704C184.716 19.48 184.79 19.2933 184.94 19.144C185.098 18.9947 185.294 18.92 185.528 18.92C185.752 18.92 185.943 18.9947 186.102 19.144C186.26 19.2933 186.34 19.48 186.34 19.704C186.34 19.9373 186.26 20.1333 186.102 20.292C185.943 20.4413 185.752 20.516 185.528 20.516ZM184.94 29V22.056H186.116V29H184.94ZM190.907 29C190.273 29 189.773 28.846 189.409 28.538C189.045 28.23 188.863 27.6747 188.863 26.872V23.05H187.659V22.056H188.863L189.017 20.39H190.039V22.056H192.083V23.05H190.039V26.872C190.039 27.3107 190.128 27.6093 190.305 27.768C190.483 27.9173 190.795 27.992 191.243 27.992H191.971V29H190.907ZM193.073 22.322L193.885 19.2H195.201L193.913 22.322H193.073ZM198.616 29.168C197.786 29.168 197.095 28.958 196.544 28.538C195.994 28.118 195.672 27.5487 195.578 26.83H196.782C196.857 27.194 197.048 27.5113 197.356 27.782C197.674 28.0433 198.098 28.174 198.63 28.174C199.125 28.174 199.489 28.0713 199.722 27.866C199.956 27.6513 200.072 27.3993 200.072 27.11C200.072 26.69 199.918 26.41 199.61 26.27C199.312 26.13 198.887 26.004 198.336 25.892C197.963 25.8173 197.59 25.71 197.216 25.57C196.843 25.43 196.53 25.234 196.278 24.982C196.026 24.7207 195.9 24.38 195.9 23.96C195.9 23.3533 196.124 22.8587 196.572 22.476C197.03 22.084 197.646 21.888 198.42 21.888C199.158 21.888 199.76 22.0747 200.226 22.448C200.702 22.812 200.978 23.3347 201.052 24.016H199.89C199.844 23.6613 199.69 23.386 199.428 23.19C199.176 22.9847 198.836 22.882 198.406 22.882C197.986 22.882 197.66 22.9707 197.426 23.148C197.202 23.3253 197.09 23.5587 197.09 23.848C197.09 24.128 197.235 24.3473 197.524 24.506C197.823 24.6647 198.224 24.8 198.728 24.912C199.158 25.0053 199.564 25.122 199.946 25.262C200.338 25.3927 200.656 25.5933 200.898 25.864C201.15 26.1253 201.276 26.508 201.276 27.012C201.286 27.6373 201.048 28.1553 200.562 28.566C200.086 28.9673 199.438 29.168 198.616 29.168ZM22.966 46V35.92H24.142V46H22.966ZM26.7835 37.516C26.5502 37.516 26.3542 37.4413 26.1955 37.292C26.0462 37.1333 25.9715 36.9373 25.9715 36.704C25.9715 36.48 26.0462 36.2933 26.1955 36.144C26.3542 35.9947 26.5502 35.92 26.7835 35.92C27.0075 35.92 27.1988 35.9947 27.3575 36.144C27.5162 36.2933 27.5955 36.48 27.5955 36.704C27.5955 36.9373 27.5162 37.1333 27.3575 37.292C27.1988 37.4413 27.0075 37.516 26.7835 37.516ZM26.1955 46V39.056H27.3715V46H26.1955ZM32.6111 46.168C31.9485 46.168 31.3511 46.0187 30.8191 45.72C30.2965 45.412 29.8811 44.9873 29.5731 44.446C29.2745 43.8953 29.1251 43.256 29.1251 42.528C29.1251 41.8 29.2745 41.1653 29.5731 40.624C29.8811 40.0733 30.2965 39.6487 30.8191 39.35C31.3511 39.042 31.9485 38.888 32.6111 38.888C33.4325 38.888 34.1231 39.1027 34.6831 39.532C35.2525 39.9613 35.6118 40.5353 35.7611 41.254H34.5571C34.4638 40.8247 34.2351 40.4933 33.8711 40.26C33.5071 40.0173 33.0825 39.896 32.5971 39.896C32.2051 39.896 31.8365 39.994 31.4911 40.19C31.1458 40.386 30.8658 40.68 30.6511 41.072C30.4365 41.464 30.3291 41.9493 30.3291 42.528C30.3291 43.1067 30.4365 43.592 30.6511 43.984C30.8658 44.376 31.1458 44.6747 31.4911 44.88C31.8365 45.076 32.2051 45.174 32.5971 45.174C33.0825 45.174 33.5071 45.0573 33.8711 44.824C34.2351 44.5813 34.4638 44.2407 34.5571 43.802H35.7611C35.6211 44.502 35.2665 45.0713 34.6971 45.51C34.1278 45.9487 33.4325 46.168 32.6111 46.168ZM40.5255 46.168C39.8628 46.168 39.2748 46.0187 38.7615 45.72C38.2482 45.412 37.8422 44.9873 37.5435 44.446C37.2542 43.9047 37.1095 43.2653 37.1095 42.528C37.1095 41.8 37.2542 41.1653 37.5435 40.624C37.8328 40.0733 38.2342 39.6487 38.7475 39.35C39.2702 39.042 39.8722 38.888 40.5535 38.888C41.2255 38.888 41.8042 39.042 42.2895 39.35C42.7842 39.6487 43.1622 40.0453 43.4235 40.54C43.6848 41.0347 43.8155 41.5667 43.8155 42.136C43.8155 42.2387 43.8108 42.3413 43.8015 42.444C43.8015 42.5467 43.8015 42.6633 43.8015 42.794H38.2715C38.2995 43.326 38.4208 43.7693 38.6355 44.124C38.8595 44.4693 39.1348 44.7307 39.4615 44.908C39.7975 45.0853 40.1522 45.174 40.5255 45.174C41.0108 45.174 41.4168 45.062 41.7435 44.838C42.0702 44.614 42.3082 44.3107 42.4575 43.928H43.6195C43.4328 44.572 43.0735 45.1087 42.5415 45.538C42.0188 45.958 41.3468 46.168 40.5255 46.168ZM40.5255 39.882C39.9655 39.882 39.4662 40.0547 39.0275 40.4C38.5982 40.736 38.3508 41.2307 38.2855 41.884H42.6535C42.6255 41.2587 42.4108 40.7687 42.0095 40.414C41.6082 40.0593 41.1135 39.882 40.5255 39.882ZM45.3742 46V39.056H46.4382L46.5082 40.302C46.7322 39.8633 47.0542 39.518 47.4742 39.266C47.8942 39.014 48.3702 38.888 48.9022 38.888C49.7235 38.888 50.3769 39.14 50.8622 39.644C51.3569 40.1387 51.6042 40.904 51.6042 41.94V46H50.4282V42.066C50.4282 40.6193 49.8309 39.896 48.6362 39.896C48.0389 39.896 47.5395 40.1153 47.1382 40.554C46.7462 40.9833 46.5502 41.5993 46.5502 42.402V46H45.3742ZM56.0459 46.168C55.2153 46.168 54.5246 45.958 53.9739 45.538C53.4233 45.118 53.1013 44.5487 53.0079 43.83H54.2119C54.2866 44.194 54.4779 44.5113 54.7859 44.782C55.1033 45.0433 55.5279 45.174 56.0599 45.174C56.5546 45.174 56.9186 45.0713 57.1519 44.866C57.3853 44.6513 57.5019 44.3993 57.5019 44.11C57.5019 43.69 57.3479 43.41 57.0399 43.27C56.7413 43.13 56.3166 43.004 55.7659 42.892C55.3926 42.8173 55.0193 42.71 54.6459 42.57C54.2726 42.43 53.9599 42.234 53.7079 41.982C53.4559 41.7207 53.3299 41.38 53.3299 40.96C53.3299 40.3533 53.5539 39.8587 54.0019 39.476C54.4593 39.084 55.0753 38.888 55.8499 38.888C56.5873 38.888 57.1893 39.0747 57.6559 39.448C58.1319 39.812 58.4073 40.3347 58.4819 41.016H57.3199C57.2733 40.6613 57.1193 40.386 56.8579 40.19C56.6059 39.9847 56.2653 39.882 55.8359 39.882C55.4159 39.882 55.0893 39.9707 54.8559 40.148C54.6319 40.3253 54.5199 40.5587 54.5199 40.848C54.5199 41.128 54.6646 41.3473 54.9539 41.506C55.2526 41.6647 55.6539 41.8 56.1579 41.912C56.5873 42.0053 56.9933 42.122 57.3759 42.262C57.7679 42.3927 58.0853 42.5933 58.3279 42.864C58.5799 43.1253 58.7059 43.508 58.7059 44.012C58.7153 44.6373 58.4773 45.1553 57.9919 45.566C57.5159 45.9673 56.8673 46.168 56.0459 46.168ZM63.5079 46.168C62.8453 46.168 62.2573 46.0187 61.7439 45.72C61.2306 45.412 60.8246 44.9873 60.5259 44.446C60.2366 43.9047 60.0919 43.2653 60.0919 42.528C60.0919 41.8 60.2366 41.1653 60.5259 40.624C60.8153 40.0733 61.2166 39.6487 61.7299 39.35C62.2526 39.042 62.8546 38.888 63.5359 38.888C64.2079 38.888 64.7866 39.042 65.2719 39.35C65.7666 39.6487 66.1446 40.0453 66.4059 40.54C66.6673 41.0347 66.7979 41.5667 66.7979 42.136C66.7979 42.2387 66.7933 42.3413 66.7839 42.444C66.7839 42.5467 66.7839 42.6633 66.7839 42.794H61.2539C61.2819 43.326 61.4033 43.7693 61.6179 44.124C61.8419 44.4693 62.1173 44.7307 62.4439 44.908C62.7799 45.0853 63.1346 45.174 63.5079 45.174C63.9933 45.174 64.3993 45.062 64.7259 44.838C65.0526 44.614 65.2906 44.3107 65.4399 43.928H66.6019C66.4153 44.572 66.0559 45.1087 65.5239 45.538C65.0013 45.958 64.3293 46.168 63.5079 46.168ZM63.5079 39.882C62.9479 39.882 62.4486 40.0547 62.0099 40.4C61.5806 40.736 61.3333 41.2307 61.2679 41.884H65.6359C65.6079 41.2587 65.3933 40.7687 64.9919 40.414C64.5906 40.0593 64.0959 39.882 63.5079 39.882ZM72.0617 49.08V39.056H73.1257L73.2377 40.204C73.4617 39.868 73.779 39.5647 74.1897 39.294C74.6097 39.0233 75.1417 38.888 75.7857 38.888C76.4764 38.888 77.0784 39.0467 77.5917 39.364C78.105 39.6813 78.5017 40.1153 78.7817 40.666C79.071 41.2167 79.2157 41.842 79.2157 42.542C79.2157 43.242 79.071 43.8673 78.7817 44.418C78.5017 44.9593 78.1004 45.3887 77.5777 45.706C77.0644 46.014 76.4624 46.168 75.7717 46.168C75.2024 46.168 74.6937 46.0513 74.2457 45.818C73.807 45.5847 73.471 45.258 73.2377 44.838V49.08H72.0617ZM75.6457 45.146C76.1124 45.146 76.523 45.0387 76.8777 44.824C77.2324 44.6 77.5124 44.292 77.7177 43.9C77.923 43.508 78.0257 43.0507 78.0257 42.528C78.0257 42.0053 77.923 41.548 77.7177 41.156C77.5124 40.764 77.2324 40.4607 76.8777 40.246C76.523 40.022 76.1124 39.91 75.6457 39.91C75.179 39.91 74.7684 40.022 74.4137 40.246C74.059 40.4607 73.779 40.764 73.5737 41.156C73.3684 41.548 73.2657 42.0053 73.2657 42.528C73.2657 43.0507 73.3684 43.508 73.5737 43.9C73.779 44.292 74.059 44.6 74.4137 44.824C74.7684 45.0387 75.179 45.146 75.6457 45.146ZM80.8527 46V35.92H82.0287V46H80.8527ZM86.2662 46.168C85.6876 46.168 85.2069 46.07 84.8242 45.874C84.4416 45.678 84.1569 45.4167 83.9702 45.09C83.7836 44.7633 83.6902 44.4087 83.6902 44.026C83.6902 43.3167 83.9609 42.7707 84.5022 42.388C85.0436 42.0053 85.7809 41.814 86.7142 41.814H88.5902V41.73C88.5902 41.1233 88.4316 40.666 88.1142 40.358C87.7969 40.0407 87.3722 39.882 86.8402 39.882C86.3829 39.882 85.9862 39.9987 85.6502 40.232C85.3236 40.456 85.1182 40.7873 85.0342 41.226H83.8302C83.8769 40.722 84.0449 40.2973 84.3342 39.952C84.6329 39.6067 85.0016 39.3453 85.4402 39.168C85.8789 38.9813 86.3456 38.888 86.8402 38.888C87.8109 38.888 88.5389 39.1493 89.0242 39.672C89.5189 40.1853 89.7662 40.8713 89.7662 41.73V46H88.7162L88.6462 44.754C88.4502 45.146 88.1609 45.482 87.7782 45.762C87.4049 46.0327 86.9009 46.168 86.2662 46.168ZM86.4482 45.174C86.8962 45.174 87.2789 45.0573 87.5962 44.824C87.9229 44.5907 88.1702 44.2873 88.3382 43.914C88.5062 43.5407 88.5902 43.1487 88.5902 42.738V42.724H86.8122C86.1216 42.724 85.6316 42.8453 85.3422 43.088C85.0622 43.3213 84.9222 43.6153 84.9222 43.97C84.9222 44.334 85.0529 44.628 85.3142 44.852C85.5849 45.0667 85.9629 45.174 86.4482 45.174ZM94.083 46C93.4484 46 92.949 45.846 92.585 45.538C92.221 45.23 92.039 44.6747 92.039 43.872V40.05H90.835V39.056H92.039L92.193 37.39H93.215V39.056H95.259V40.05H93.215V43.872C93.215 44.3107 93.3037 44.6093 93.481 44.768C93.6584 44.9173 93.971 44.992 94.419 44.992H95.147V46H94.083ZM99.6837 46.168C99.021 46.168 98.433 46.0187 97.9197 45.72C97.4064 45.412 97.0004 44.9873 96.7017 44.446C96.4124 43.9047 96.2677 43.2653 96.2677 42.528C96.2677 41.8 96.4124 41.1653 96.7017 40.624C96.991 40.0733 97.3924 39.6487 97.9057 39.35C98.4284 39.042 99.0304 38.888 99.7117 38.888C100.384 38.888 100.962 39.042 101.448 39.35C101.942 39.6487 102.32 40.0453 102.582 40.54C102.843 41.0347 102.974 41.5667 102.974 42.136C102.974 42.2387 102.969 42.3413 102.96 42.444C102.96 42.5467 102.96 42.6633 102.96 42.794H97.4297C97.4577 43.326 97.579 43.7693 97.7937 44.124C98.0177 44.4693 98.293 44.7307 98.6197 44.908C98.9557 45.0853 99.3104 45.174 99.6837 45.174C100.169 45.174 100.575 45.062 100.902 44.838C101.228 44.614 101.466 44.3107 101.616 43.928H102.778C102.591 44.572 102.232 45.1087 101.7 45.538C101.177 45.958 100.505 46.168 99.6837 46.168ZM99.6837 39.882C99.1237 39.882 98.6244 40.0547 98.1857 40.4C97.7564 40.736 97.509 41.2307 97.4437 41.884H101.812C101.784 41.2587 101.569 40.7687 101.168 40.414C100.766 40.0593 100.272 39.882 99.6837 39.882ZM111.947 46.168C111.378 46.168 110.869 46.0513 110.421 45.818C109.983 45.5847 109.647 45.258 109.413 44.838L109.301 46H108.237V35.92H109.413V40.204C109.637 39.868 109.955 39.5647 110.365 39.294C110.785 39.0233 111.317 38.888 111.961 38.888C112.652 38.888 113.254 39.0467 113.767 39.364C114.281 39.6813 114.677 40.1153 114.957 40.666C115.247 41.2167 115.391 41.842 115.391 42.542C115.391 43.242 115.247 43.8673 114.957 44.418C114.677 44.9593 114.276 45.3887 113.753 45.706C113.24 46.014 112.638 46.168 111.947 46.168ZM111.821 45.146C112.288 45.146 112.699 45.0387 113.053 44.824C113.408 44.6 113.688 44.292 113.893 43.9C114.099 43.508 114.201 43.0507 114.201 42.528C114.201 42.0053 114.099 41.548 113.893 41.156C113.688 40.764 113.408 40.4607 113.053 40.246C112.699 40.022 112.288 39.91 111.821 39.91C111.355 39.91 110.944 40.022 110.589 40.246C110.235 40.4607 109.955 40.764 109.749 41.156C109.544 41.548 109.441 42.0053 109.441 42.528C109.441 43.0507 109.544 43.508 109.749 43.9C109.955 44.292 110.235 44.6 110.589 44.824C110.944 45.0387 111.355 45.146 111.821 45.146ZM120.151 46.168C119.488 46.168 118.9 46.0187 118.387 45.72C117.873 45.412 117.467 44.9873 117.169 44.446C116.879 43.9047 116.735 43.2653 116.735 42.528C116.735 41.8 116.879 41.1653 117.169 40.624C117.458 40.0733 117.859 39.6487 118.373 39.35C118.895 39.042 119.497 38.888 120.178 38.888C120.851 38.888 121.429 39.042 121.915 39.35C122.409 39.6487 122.787 40.0453 123.049 40.54C123.31 41.0347 123.441 41.5667 123.441 42.136C123.441 42.2387 123.436 42.3413 123.427 42.444C123.427 42.5467 123.427 42.6633 123.427 42.794H117.897C117.925 43.326 118.046 43.7693 118.261 44.124C118.485 44.4693 118.76 44.7307 119.087 44.908C119.423 45.0853 119.777 45.174 120.151 45.174C120.636 45.174 121.042 45.062 121.369 44.838C121.695 44.614 121.933 44.3107 122.083 43.928H123.245C123.058 44.572 122.699 45.1087 122.167 45.538C121.644 45.958 120.972 46.168 120.151 46.168ZM120.151 39.882C119.591 39.882 119.091 40.0547 118.653 40.4C118.223 40.736 117.976 41.2307 117.91 41.884H122.279C122.251 41.2587 122.036 40.7687 121.635 40.414C121.233 40.0593 120.739 39.882 120.151 39.882ZM124.999 46V35.92H126.175V46H124.999ZM131.267 46.168C130.613 46.168 130.025 46.0187 129.503 45.72C128.98 45.4213 128.565 45.0013 128.257 44.46C127.958 43.9093 127.809 43.2653 127.809 42.528C127.809 41.7907 127.963 41.1513 128.271 40.61C128.579 40.0593 128.994 39.6347 129.517 39.336C130.049 39.0373 130.641 38.888 131.295 38.888C131.948 38.888 132.536 39.0373 133.059 39.336C133.581 39.6347 133.992 40.0593 134.291 40.61C134.599 41.1513 134.753 41.7907 134.753 42.528C134.753 43.2653 134.599 43.9093 134.291 44.46C133.983 45.0013 133.563 45.4213 133.031 45.72C132.508 46.0187 131.92 46.168 131.267 46.168ZM131.267 45.16C131.668 45.16 132.041 45.062 132.387 44.866C132.732 44.67 133.012 44.376 133.227 43.984C133.441 43.592 133.549 43.1067 133.549 42.528C133.549 41.9493 133.441 41.464 133.227 41.072C133.021 40.68 132.746 40.386 132.401 40.19C132.055 39.994 131.687 39.896 131.295 39.896C130.893 39.896 130.52 39.994 130.175 40.19C129.829 40.386 129.549 40.68 129.335 41.072C129.12 41.464 129.013 41.9493 129.013 42.528C129.013 43.1067 129.12 43.592 129.335 43.984C129.549 44.376 129.825 44.67 130.161 44.866C130.506 45.062 130.875 45.16 131.267 45.16ZM137.528 46L135.498 39.056H136.674L138.144 44.502L139.768 39.056H141.098L142.736 44.502L144.192 39.056H145.382L143.352 46H142.148L140.44 40.274L138.732 46H137.528Z" fill="#111827"/>
<path d="M36 0.5H215C232.397 0.5 246.5 14.603 246.5 32V34C246.5 51.397 232.397 65.5 215 65.5H8C6.067 65.5 4.5 63.933 4.5 62V32C4.5 14.603 18.603 0.5 36 0.5Z" stroke="#E5E7EB" shape-rendering="crispEdges"/>
</g>
<defs>
<filter id="filter0_d_643_24292" x="0" y="0" width="251" height="74" filterUnits="userSpaceOnUse" color-interpolation-filters="sRGB">
<feFlood flood-opacity="0" result="BackgroundImageFix"/>
<feColorMatrix in="SourceAlpha" type="matrix" values="0 0 0 0 0 0 0 0 0 0 0 0 0 0 0 0 0 0 127 0" result="hardAlpha"/>
<feOffset dy="4"/>
<feGaussianBlur stdDeviation="2"/>
<feComposite in2="hardAlpha" operator="out"/>
<feColorMatrix type="matrix" values="0 0 0 0 0 0 0 0 0 0 0 0 0 0 0 0 0 0 0.25 0"/>
<feBlend mode="normal" in2="BackgroundImageFix" result="effect1_dropShadow_643_24292"/>
<feBlend mode="normal" in="SourceGraphic" in2="effect1_dropShadow_643_24292" result="shape"/>
</filter>
</defs>
</svg>
