<svg width="54" height="38" viewBox="0 0 54 38" fill="none" xmlns="http://www.w3.org/2000/svg">
<path d="M0.994 24V14.2H2.478L7.392 21.578V14.2H8.876V24H7.392L2.478 16.622V24H0.994ZM14.0991 24.168C13.3804 24.168 12.7504 24.042 12.2091 23.79C11.6678 23.538 11.2431 23.1787 10.9351 22.712C10.6364 22.2453 10.4824 21.69 10.4731 21.046H12.0411C12.0504 21.5687 12.2324 22.012 12.5871 22.376C12.9418 22.74 13.4411 22.922 14.0851 22.922C14.6544 22.922 15.0978 22.7867 15.4151 22.516C15.7418 22.236 15.9051 21.8813 15.9051 21.452C15.9051 21.1067 15.8258 20.8267 15.6671 20.612C15.5178 20.3973 15.3078 20.22 15.0371 20.08C14.7758 19.94 14.4724 19.814 14.1271 19.702C13.7818 19.59 13.4178 19.4687 13.0351 19.338C12.2791 19.086 11.7098 18.7593 11.3271 18.358C10.9538 17.9567 10.7671 17.4293 10.7671 16.776C10.7578 16.2253 10.8838 15.7447 11.1451 15.334C11.4158 14.9233 11.7891 14.606 12.2651 14.382C12.7504 14.1487 13.3151 14.032 13.9591 14.032C14.5938 14.032 15.1491 14.1487 15.6251 14.382C16.1104 14.6153 16.4884 14.942 16.7591 15.362C17.0298 15.7727 17.1698 16.2533 17.1791 16.804H15.6111C15.6111 16.552 15.5458 16.314 15.4151 16.09C15.2844 15.8567 15.0931 15.6653 14.8411 15.516C14.5891 15.3667 14.2811 15.292 13.9171 15.292C13.4504 15.2827 13.0631 15.3993 12.7551 15.642C12.4564 15.8847 12.3071 16.2207 12.3071 16.65C12.3071 17.0327 12.4191 17.3267 12.6431 17.532C12.8671 17.7373 13.1751 17.91 13.5671 18.05C13.9591 18.1807 14.4071 18.3347 14.9111 18.512C15.3964 18.6707 15.8304 18.862 16.2131 19.086C16.5958 19.31 16.8991 19.604 17.1231 19.968C17.3564 20.332 17.4731 20.794 17.4731 21.354C17.4731 21.8487 17.3471 22.3107 17.0951 22.74C16.8431 23.16 16.4651 23.5053 15.9611 23.776C15.4571 24.0373 14.8364 24.168 14.0991 24.168ZM20.9198 24.014L18.2738 14.2H19.8698L21.8158 22.32L24.0558 14.2H25.6938L27.8638 22.32L29.8098 14.2H31.4058L28.7178 24H26.9818L24.8398 16.314L22.6278 24L20.9198 24.014Z" fill="#111827"/>
<path d="M51 17L46 22L41 17" stroke="black" stroke-width="1.5" stroke-linecap="round" stroke-linejoin="round"/>
</svg>
