<svg width="73" height="65" viewBox="0 0 73 65" fill="none" xmlns="http://www.w3.org/2000/svg">
<rect x="16.5" y="12.5" width="40" height="40" rx="20" fill="black"/>
<path d="M47.0389 38.7619C46.6439 39.6703 46.1764 40.5064 45.6347 41.2752C44.8963 42.3231 44.2917 43.0486 43.8258 43.4514C43.1035 44.1126 42.3297 44.4512 41.501 44.4705C40.9061 44.4705 40.1887 44.302 39.3536 43.9601C38.5157 43.6199 37.7457 43.4514 37.0417 43.4514C36.3033 43.4514 35.5114 43.6199 34.6644 43.9601C33.816 44.302 33.1326 44.4801 32.6101 44.4978C31.8154 44.5315 31.0234 44.1832 30.2328 43.4514C29.7281 43.0132 29.097 42.2622 28.3408 41.1981C27.5296 40.0619 26.8626 38.7442 26.3401 37.2421C25.7805 35.6195 25.5 34.0483 25.5 32.5272C25.5 30.7848 25.8782 29.282 26.6358 28.0226C27.2312 27.0111 28.0232 26.2131 29.0146 25.6273C30.0059 25.0415 31.0771 24.743 32.2306 24.7239C32.8618 24.7239 33.6895 24.9183 34.718 25.3002C35.7437 25.6835 36.4023 25.8778 36.691 25.8778C36.9069 25.8778 37.6385 25.6506 38.8788 25.1975C40.0517 24.7774 41.0416 24.6034 41.8525 24.6719C44.0499 24.8485 45.7008 25.7108 46.7987 27.2643C44.8334 28.4497 43.8613 30.1099 43.8806 32.2398C43.8984 33.8988 44.5029 35.2793 45.6911 36.3754C46.2296 36.8842 46.8309 37.2774 47.5 37.5566C47.3549 37.9755 47.2017 38.3767 47.0389 38.7619ZM41.9992 19.0201C41.9992 20.3204 41.522 21.5345 40.5708 22.6583C39.4229 23.9942 38.0345 24.7661 36.5289 24.6443C36.5097 24.4883 36.4985 24.3241 36.4985 24.1516C36.4985 22.9033 37.0444 21.5674 38.0139 20.4751C38.4978 19.9221 39.1134 19.4622 39.8598 19.0954C40.6046 18.7341 41.3092 18.5342 41.9718 18.5C41.9911 18.6738 41.9992 18.8477 41.9992 19.0201V19.0201Z" fill="white"/>
</svg>
