<svg width="28" height="28" viewBox="0 0 28 28" fill="none" xmlns="http://www.w3.org/2000/svg">
<path d="M16.9517 11.0484L11.0483 16.9517C10.29 16.1934 9.82333 15.155 9.82333 14C9.82333 11.69 11.69 9.82336 14 9.82336C15.155 9.82336 16.1933 10.29 16.9517 11.0484Z" stroke="#111827" stroke-width="1.5" stroke-linecap="round" stroke-linejoin="round"/>
<path d="M20.79 6.73168C18.7483 5.19168 16.415 4.35168 14 4.35168C9.88167 4.35168 6.04333 6.77835 3.37167 10.9784C2.32167 12.6234 2.32167 15.3884 3.37167 17.0334C4.29333 18.48 5.36667 19.7284 6.53333 20.7317" stroke="#111827" stroke-width="1.5" stroke-linecap="round" stroke-linejoin="round"/>
<path d="M9.82333 22.785C11.1533 23.345 12.565 23.6484 14 23.6484C18.1183 23.6484 21.9567 21.2217 24.6283 17.0217C25.6783 15.3767 25.6783 12.6117 24.6283 10.9667C24.2433 10.36 23.8233 9.78838 23.3917 9.25171" stroke="#111827" stroke-width="1.5" stroke-linecap="round" stroke-linejoin="round"/>
<path d="M18.095 14.8167C17.7917 16.4617 16.45 17.8033 14.805 18.1067" stroke="#111827" stroke-width="1.5" stroke-linecap="round" stroke-linejoin="round"/>
<path d="M11.0483 16.9517L2.33334 25.6667" stroke="#111827" stroke-width="1.5" stroke-linecap="round" stroke-linejoin="round"/>
<path d="M25.6667 2.33337L16.9517 11.0484" stroke="#111827" stroke-width="1.5" stroke-linecap="round" stroke-linejoin="round"/>
</svg>
