<svg width="28" height="28" viewBox="0 0 28 28" fill="none" xmlns="http://www.w3.org/2000/svg">
<path d="M18.1767 14C18.1767 16.31 16.31 18.1767 14 18.1767C11.69 18.1767 9.82333 16.31 9.82333 14C9.82333 11.69 11.69 9.82336 14 9.82336C16.31 9.82336 18.1767 11.69 18.1767 14Z" stroke="#111827" stroke-width="1.5" stroke-linecap="round" stroke-linejoin="round"/>
<path d="M14 23.6483C18.1183 23.6483 21.9567 21.2216 24.6283 17.0216C25.6783 15.3766 25.6783 12.6116 24.6283 10.9666C21.9567 6.76663 18.1183 4.33997 14 4.33997C9.88167 4.33997 6.04333 6.76663 3.37167 10.9666C2.32167 12.6116 2.32167 15.3766 3.37167 17.0216C6.04333 21.2216 9.88167 23.6483 14 23.6483Z" stroke="#111827" stroke-width="1.5" stroke-linecap="round" stroke-linejoin="round"/>
</svg>
