<svg width="93" height="85" viewBox="0 0 93 85" fill="none" xmlns="http://www.w3.org/2000/svg">
<rect x="16.5" y="12.5" width="60" height="60" rx="30" fill="white"/>
<path fill-rule="evenodd" clip-rule="evenodd" d="M65.01 42.9432C65.01 41.5605 64.8859 40.2309 64.6554 38.9546H46.29V46.4975H56.7845C56.3325 48.935 54.9586 51.0002 52.8934 52.383V57.2757H59.1954C62.8827 53.8809 65.01 48.8818 65.01 42.9432Z" fill="#4285F4"/>
<path fill-rule="evenodd" clip-rule="evenodd" d="M46.29 62C51.555 62 55.9691 60.2538 59.1955 57.2757L52.8934 52.3829C51.1473 53.5529 48.9137 54.2443 46.29 54.2443C41.2112 54.2443 36.9123 50.8141 35.3789 46.205H28.8641V51.2573C32.0728 57.6302 38.6673 62 46.29 62Z" fill="#34A853"/>
<path fill-rule="evenodd" clip-rule="evenodd" d="M35.3788 46.205C34.9888 45.035 34.7672 43.7852 34.7672 42.5C34.7672 41.2148 34.9888 39.965 35.3788 38.795V33.7427H28.8641C27.5434 36.3752 26.79 39.3534 26.79 42.5C26.79 45.6466 27.5434 48.6248 28.8641 51.2573L35.3788 46.205Z" fill="#FBBC05"/>
<path fill-rule="evenodd" clip-rule="evenodd" d="M46.29 30.7557C49.153 30.7557 51.7234 31.7395 53.7444 33.6718L59.3373 28.0789C55.9603 24.9323 51.5462 23 46.29 23C38.6673 23 32.0728 27.3698 28.8641 33.7427L35.3789 38.795C36.9123 34.1859 41.2112 30.7557 46.29 30.7557Z" fill="#EA4335"/>
</svg>
