<svg width="28" height="28" viewBox="0 0 28 28" fill="none" xmlns="http://www.w3.org/2000/svg">
<path d="M26.2512 14.2721C26.2512 13.2649 26.1678 12.5299 25.9874 11.7677H14.2513V16.3138H21.1401C21.0012 17.4435 20.2512 19.1449 18.5845 20.2882L18.5612 20.4404L22.2719 23.2576L22.529 23.2827C24.8901 21.1457 26.2512 18.0015 26.2512 14.2721" fill="#4285F4"/>
<path d="M14.2505 26.25C17.6254 26.25 20.4587 25.1611 22.5282 23.2828L18.5837 20.2883C17.5282 21.0097 16.1115 21.5133 14.2505 21.5133C10.9449 21.5133 8.13941 19.3764 7.13932 16.4227L6.99273 16.4349L3.13426 19.3614L3.0838 19.4988C5.13933 23.5005 9.36154 26.25 14.2505 26.25Z" fill="#34A853"/>
<path d="M7.14005 16.4227C6.87617 15.6605 6.72345 14.8438 6.72345 13.9999C6.72345 13.156 6.87617 12.3394 7.12617 11.5771L7.11918 11.4148L3.21235 8.44141L3.08452 8.50099C2.23734 10.1616 1.75122 12.0263 1.75122 13.9999C1.75122 15.9735 2.23734 17.8382 3.08452 19.4988L7.14005 16.4227" fill="#FBBC05"/>
<path d="M14.2505 6.48663C16.5977 6.48663 18.181 7.48024 19.0838 8.31058L22.6116 4.935C20.445 2.96139 17.6255 1.75 14.2505 1.75C9.36158 1.75 5.13934 4.49942 3.0838 8.50106L7.12546 11.5772C8.13944 8.6236 10.945 6.48663 14.2505 6.48663" fill="#EB4335"/>
</svg>
