<svg width="28" height="28" viewBox="0 0 28 28" fill="none" xmlns="http://www.w3.org/2000/svg">
<path fill-rule="evenodd" clip-rule="evenodd" d="M13.4565 3.5C10.7527 3.5 10.4134 3.51182 9.35144 3.56015C8.29158 3.60868 7.56813 3.77648 6.93512 4.02267C6.28033 4.27696 5.72488 4.61711 5.17151 5.17068C4.61773 5.72405 4.27758 6.2795 4.02246 6.93408C3.77565 7.5673 3.60765 8.29095 3.55994 9.3504C3.51244 10.4123 3.5 10.7519 3.5 13.4557C3.5 16.1594 3.51203 16.4977 3.56015 17.5597C3.60889 18.6195 3.77668 19.343 4.02267 19.976C4.27716 20.6308 4.61732 21.1862 5.17089 21.7396C5.72405 22.2934 6.2795 22.6344 6.93387 22.8886C7.5673 23.1348 8.29095 23.3026 9.35061 23.3512C10.4125 23.3995 10.7517 23.4113 13.4552 23.4113C16.1592 23.4113 16.4975 23.3995 17.5595 23.3512C18.6193 23.3026 19.3436 23.1348 19.977 22.8886C20.6316 22.6344 21.1862 22.2934 21.7394 21.7396C22.2932 21.1862 22.6333 20.6308 22.8884 19.9762C23.1332 19.343 23.3012 18.6193 23.351 17.5599C23.3987 16.4979 23.4111 16.1594 23.4111 13.4557C23.4111 10.7519 23.3987 10.4125 23.351 9.35061C23.3012 8.29075 23.1332 7.5673 22.8884 6.93429C22.6333 6.2795 22.2932 5.72405 21.7394 5.17068C21.1856 4.6169 20.6318 4.27675 19.9764 4.02267C19.3417 3.77648 18.6179 3.60868 17.558 3.56015C16.4961 3.51182 16.158 3.5 13.4534 3.5H13.4565ZM12.5633 5.29406C12.8284 5.29365 13.1242 5.29406 13.4564 5.29406C16.1146 5.29406 16.4297 5.30361 17.4794 5.35131C18.45 5.3957 18.9769 5.55789 19.3278 5.69416C19.7924 5.8746 20.1236 6.09031 20.4719 6.43876C20.8203 6.78721 21.036 7.11906 21.2169 7.58366C21.3531 7.93418 21.5156 8.461 21.5597 9.43168C21.6074 10.4812 21.6178 10.7964 21.6178 13.4534C21.6178 16.1103 21.6074 16.4255 21.5597 17.475C21.5153 18.4457 21.3531 18.9725 21.2169 19.323C21.0364 19.7876 20.8203 20.1185 20.4719 20.4667C20.1234 20.8151 19.7926 21.0309 19.3278 21.2113C18.9773 21.3482 18.45 21.51 17.4794 21.5544C16.4299 21.6021 16.1146 21.6124 13.4564 21.6124C10.7981 21.6124 10.483 21.6021 9.43353 21.5544C8.46285 21.5096 7.93603 21.3474 7.58489 21.2111C7.12029 21.0306 6.78844 20.8149 6.43999 20.4665C6.09154 20.118 5.87583 19.787 5.69497 19.3222C5.5587 18.9717 5.3963 18.4449 5.35212 17.4742C5.30442 16.4247 5.29488 16.1094 5.29488 13.4509C5.29488 10.7923 5.30442 10.4787 5.35212 9.42919C5.39651 8.45851 5.5587 7.93169 5.69497 7.58076C5.87542 7.11616 6.09154 6.7843 6.43999 6.43585C6.78844 6.08741 7.12029 5.8717 7.58489 5.69084C7.93583 5.55395 8.46285 5.39217 9.43353 5.34758C10.3519 5.30609 10.7079 5.29365 12.5633 5.29158V5.29406ZM18.7707 6.94712C18.1111 6.94712 17.576 7.48162 17.576 8.14139C17.576 8.80095 18.1111 9.33607 18.7707 9.33607C19.4303 9.33607 19.9654 8.80095 19.9654 8.14139C19.9654 7.48182 19.4303 6.94712 18.7707 6.94712ZM13.4565 8.34299C10.633 8.34299 8.34386 10.6322 8.34386 13.4556C8.34386 16.2791 10.633 18.5672 13.4565 18.5672C16.28 18.5672 18.5683 16.2791 18.5683 13.4556C18.5683 10.6322 16.28 8.34299 13.4565 8.34299ZM13.4565 10.1371C15.2891 10.1371 16.775 11.6228 16.775 13.4556C16.775 15.2883 15.2891 16.7742 13.4565 16.7742C11.6236 16.7742 10.1379 15.2883 10.1379 13.4556C10.1379 11.6228 11.6236 10.1371 13.4565 10.1371Z" fill="#111827"/>
</svg>
